<svg xmlns="http://www.w3.org/2000/svg" xmlns:xlink="http://www.w3.org/1999/xlink" contentStyleType="text/css" height="1382px" preserveAspectRatio="none" style="width:2419px;height:1382px;background:#FFFFFF;" version="1.1" viewBox="0 0 2419 1382" width="2419px" zoomAndPan="magnify"><defs/><g><text fill="#000000" font-family="sans-serif" font-size="14" font-weight="bold" lengthAdjust="spacing" textLength="364" x="1023.75" y="27.9951">Sequence Diagram for Crowdfunding Platform</text><line style="stroke:#181818;stroke-width:0.5;stroke-dasharray:5.0,5.0;" x1="66" x2="66" y1="118.5938" y2="1301.6406"/><line style="stroke:#181818;stroke-width:0.5;stroke-dasharray:5.0,5.0;" x1="201" x2="201" y1="118.5938" y2="1301.6406"/><line style="stroke:#181818;stroke-width:0.5;stroke-dasharray:5.0,5.0;" x1="370" x2="370" y1="118.5938" y2="1301.6406"/><line style="stroke:#181818;stroke-width:0.5;stroke-dasharray:5.0,5.0;" x1="597" x2="597" y1="118.5938" y2="1301.6406"/><line style="stroke:#181818;stroke-width:0.5;stroke-dasharray:5.0,5.0;" x1="729" x2="729" y1="118.5938" y2="1301.6406"/><line style="stroke:#181818;stroke-width:0.5;stroke-dasharray:5.0,5.0;" x1="945" x2="945" y1="118.5938" y2="1301.6406"/><line style="stroke:#181818;stroke-width:0.5;stroke-dasharray:5.0,5.0;" x1="1099" x2="1099" y1="118.5938" y2="1301.6406"/><line style="stroke:#181818;stroke-width:0.5;stroke-dasharray:5.0,5.0;" x1="1365" x2="1365" y1="118.5938" y2="1301.6406"/><line style="stroke:#181818;stroke-width:0.5;stroke-dasharray:5.0,5.0;" x1="1527" x2="1527" y1="118.5938" y2="1301.6406"/><line style="stroke:#181818;stroke-width:0.5;stroke-dasharray:5.0,5.0;" x1="1854" x2="1854" y1="118.5938" y2="1301.6406"/><line style="stroke:#181818;stroke-width:0.5;stroke-dasharray:5.0,5.0;" x1="2091.5" x2="2091.5" y1="118.5938" y2="1301.6406"/><line style="stroke:#181818;stroke-width:0.5;stroke-dasharray:5.0,5.0;" x1="2359.5" x2="2359.5" y1="118.5938" y2="1301.6406"/><text fill="#000000" font-family="sans-serif" font-size="14" lengthAdjust="spacing" textLength="116" x="5" y="115.292">FundSeekerUser</text><ellipse cx="66" cy="50.7969" fill="#E2E2F0" rx="8" ry="8" style="stroke:#181818;stroke-width:0.5;"/><path d="M66,58.7969 L66,85.7969 M53,66.7969 L79,66.7969 M66,85.7969 L53,100.7969 M66,85.7969 L79,100.7969 " fill="none" style="stroke:#181818;stroke-width:0.5;"/><text fill="#000000" font-family="sans-serif" font-size="14" lengthAdjust="spacing" textLength="116" x="5" y="1313.6357">FundSeekerUser</text><ellipse cx="66" cy="1325.4375" fill="#E2E2F0" rx="8" ry="8" style="stroke:#181818;stroke-width:0.5;"/><path d="M66,1333.4375 L66,1360.4375 M53,1341.4375 L79,1341.4375 M66,1360.4375 L53,1375.4375 M66,1360.4375 L79,1375.4375 " fill="none" style="stroke:#181818;stroke-width:0.5;"/><text fill="#000000" font-family="sans-serif" font-size="14" lengthAdjust="spacing" textLength="123" x="137" y="115.292">FundProviderUser</text><ellipse cx="201.5" cy="50.7969" fill="#E2E2F0" rx="8" ry="8" style="stroke:#181818;stroke-width:0.5;"/><path d="M201.5,58.7969 L201.5,85.7969 M188.5,66.7969 L214.5,66.7969 M201.5,85.7969 L188.5,100.7969 M201.5,85.7969 L214.5,100.7969 " fill="none" style="stroke:#181818;stroke-width:0.5;"/><text fill="#000000" font-family="sans-serif" font-size="14" lengthAdjust="spacing" textLength="123" x="137" y="1313.6357">FundProviderUser</text><ellipse cx="201.5" cy="1325.4375" fill="#E2E2F0" rx="8" ry="8" style="stroke:#181818;stroke-width:0.5;"/><path d="M201.5,1333.4375 L201.5,1360.4375 M188.5,1341.4375 L214.5,1341.4375 M201.5,1360.4375 L188.5,1375.4375 M201.5,1360.4375 L214.5,1375.4375 " fill="none" style="stroke:#181818;stroke-width:0.5;"/><rect fill="#E2E2F0" height="30.2969" rx="2.5" ry="2.5" style="stroke:#181818;stroke-width:0.5;" width="188" x="276" y="87.2969"/><text fill="#000000" font-family="sans-serif" font-size="14" lengthAdjust="spacing" textLength="174" x="283" y="107.292">AuthenticationAPIHandler</text><rect fill="#E2E2F0" height="30.2969" rx="2.5" ry="2.5" style="stroke:#181818;stroke-width:0.5;" width="188" x="276" y="1300.6406"/><text fill="#000000" font-family="sans-serif" font-size="14" lengthAdjust="spacing" textLength="174" x="283" y="1320.6357">AuthenticationAPIHandler</text><rect fill="#E2E2F0" height="30.2969" rx="2.5" ry="2.5" style="stroke:#181818;stroke-width:0.5;" width="96" x="549" y="87.2969"/><text fill="#000000" font-family="sans-serif" font-size="14" lengthAdjust="spacing" textLength="82" x="556" y="107.292">UserService</text><rect fill="#E2E2F0" height="30.2969" rx="2.5" ry="2.5" style="stroke:#181818;stroke-width:0.5;" width="96" x="549" y="1300.6406"/><text fill="#000000" font-family="sans-serif" font-size="14" lengthAdjust="spacing" textLength="82" x="556" y="1320.6357">UserService</text><rect fill="#E2E2F0" height="30.2969" rx="2.5" ry="2.5" style="stroke:#181818;stroke-width:0.5;" width="148" x="655" y="87.2969"/><text fill="#000000" font-family="sans-serif" font-size="14" lengthAdjust="spacing" textLength="134" x="662" y="107.292">ProposalAPIHandler</text><rect fill="#E2E2F0" height="30.2969" rx="2.5" ry="2.5" style="stroke:#181818;stroke-width:0.5;" width="148" x="655" y="1300.6406"/><text fill="#000000" font-family="sans-serif" font-size="14" lengthAdjust="spacing" textLength="134" x="662" y="1320.6357">ProposalAPIHandler</text><rect fill="#E2E2F0" height="30.2969" rx="2.5" ry="2.5" style="stroke:#181818;stroke-width:0.5;" width="124" x="883" y="87.2969"/><text fill="#000000" font-family="sans-serif" font-size="14" lengthAdjust="spacing" textLength="110" x="890" y="107.292">ProposalService</text><rect fill="#E2E2F0" height="30.2969" rx="2.5" ry="2.5" style="stroke:#181818;stroke-width:0.5;" width="124" x="883" y="1300.6406"/><text fill="#000000" font-family="sans-serif" font-size="14" lengthAdjust="spacing" textLength="110" x="890" y="1320.6357">ProposalService</text><rect fill="#E2E2F0" height="30.2969" rx="2.5" ry="2.5" style="stroke:#181818;stroke-width:0.5;" width="165" x="1017" y="87.2969"/><text fill="#000000" font-family="sans-serif" font-size="14" lengthAdjust="spacing" textLength="151" x="1024" y="107.292">InvestmentAPIHandler</text><rect fill="#E2E2F0" height="30.2969" rx="2.5" ry="2.5" style="stroke:#181818;stroke-width:0.5;" width="165" x="1017" y="1300.6406"/><text fill="#000000" font-family="sans-serif" font-size="14" lengthAdjust="spacing" textLength="151" x="1024" y="1320.6357">InvestmentAPIHandler</text><rect fill="#E2E2F0" height="30.2969" rx="2.5" ry="2.5" style="stroke:#181818;stroke-width:0.5;" width="141" x="1295" y="87.2969"/><text fill="#000000" font-family="sans-serif" font-size="14" lengthAdjust="spacing" textLength="127" x="1302" y="107.292">InvestmentService</text><rect fill="#E2E2F0" height="30.2969" rx="2.5" ry="2.5" style="stroke:#181818;stroke-width:0.5;" width="141" x="1295" y="1300.6406"/><text fill="#000000" font-family="sans-serif" font-size="14" lengthAdjust="spacing" textLength="127" x="1302" y="1320.6357">InvestmentService</text><rect fill="#E2E2F0" height="30.2969" rx="2.5" ry="2.5" style="stroke:#181818;stroke-width:0.5;" width="162" x="1446" y="87.2969"/><text fill="#000000" font-family="sans-serif" font-size="14" lengthAdjust="spacing" textLength="148" x="1453" y="107.292">WithdrawalAPIHandler</text><rect fill="#E2E2F0" height="30.2969" rx="2.5" ry="2.5" style="stroke:#181818;stroke-width:0.5;" width="162" x="1446" y="1300.6406"/><text fill="#000000" font-family="sans-serif" font-size="14" lengthAdjust="spacing" textLength="148" x="1453" y="1320.6357">WithdrawalAPIHandler</text><rect fill="#E2E2F0" height="30.2969" rx="2.5" ry="2.5" style="stroke:#181818;stroke-width:0.5;" width="138" x="1785" y="87.2969"/><text fill="#000000" font-family="sans-serif" font-size="14" lengthAdjust="spacing" textLength="124" x="1792" y="107.292">WithdrawalService</text><rect fill="#E2E2F0" height="30.2969" rx="2.5" ry="2.5" style="stroke:#181818;stroke-width:0.5;" width="138" x="1785" y="1300.6406"/><text fill="#000000" font-family="sans-serif" font-size="14" lengthAdjust="spacing" textLength="124" x="1792" y="1320.6357">WithdrawalService</text><rect fill="#E2E2F0" height="30.2969" rx="2.5" ry="2.5" style="stroke:#181818;stroke-width:0.5;" width="113" x="2035.5" y="87.2969"/><text fill="#000000" font-family="sans-serif" font-size="14" lengthAdjust="spacing" textLength="99" x="2042.5" y="107.292">SmartContract</text><rect fill="#E2E2F0" height="30.2969" rx="2.5" ry="2.5" style="stroke:#181818;stroke-width:0.5;" width="113" x="2035.5" y="1300.6406"/><text fill="#000000" font-family="sans-serif" font-size="14" lengthAdjust="spacing" textLength="99" x="2042.5" y="1320.6357">SmartContract</text><rect fill="#E2E2F0" height="30.2969" rx="2.5" ry="2.5" style="stroke:#181818;stroke-width:0.5;" width="95" x="2312.5" y="87.2969"/><text fill="#000000" font-family="sans-serif" font-size="14" lengthAdjust="spacing" textLength="81" x="2319.5" y="107.292">Transaction</text><rect fill="#E2E2F0" height="30.2969" rx="2.5" ry="2.5" style="stroke:#181818;stroke-width:0.5;" width="95" x="2312.5" y="1300.6406"/><text fill="#000000" font-family="sans-serif" font-size="14" lengthAdjust="spacing" textLength="81" x="2319.5" y="1320.6357">Transaction</text><rect fill="#EEEEEE" height="3" style="stroke:#EEEEEE;stroke-width:1.0;" width="2412.5" x="0" y="149.1602"/><line style="stroke:#000000;stroke-width:1.0;" x1="0" x2="2412.5" y1="149.1602" y2="149.1602"/><line style="stroke:#000000;stroke-width:1.0;" x1="0" x2="2412.5" y1="152.1602" y2="152.1602"/><rect fill="#EEEEEE" height="23.1328" style="stroke:#000000;stroke-width:2.0;" width="275" x="1068.75" y="138.5938"/><text fill="#000000" font-family="sans-serif" font-size="13" font-weight="bold" lengthAdjust="spacing" textLength="256" x="1074.75" y="154.6606">User Registration &amp; Authentication</text><polygon fill="#181818" points="358,188.8594,368,192.8594,358,196.8594,362,192.8594" style="stroke:#181818;stroke-width:1.0;"/><line style="stroke:#181818;stroke-width:1.0;" x1="66" x2="364" y1="192.8594" y2="192.8594"/><text fill="#000000" font-family="sans-serif" font-size="13" lengthAdjust="spacing" textLength="118" x="73" y="187.7935">register(userData)</text><polygon fill="#181818" points="585,217.9922,595,221.9922,585,225.9922,589,221.9922" style="stroke:#181818;stroke-width:1.0;"/><line style="stroke:#181818;stroke-width:1.0;" x1="370" x2="591" y1="221.9922" y2="221.9922"/><text fill="#000000" font-family="sans-serif" font-size="13" lengthAdjust="spacing" textLength="148" x="377" y="216.9263">registerUser(userData)</text><polygon fill="#181818" points="381,247.125,371,251.125,381,255.125,377,251.125" style="stroke:#181818;stroke-width:1.0;"/><line style="stroke:#181818;stroke-width:1.0;stroke-dasharray:2.0,2.0;" x1="375" x2="596" y1="251.125" y2="251.125"/><text fill="#000000" font-family="sans-serif" font-size="13" lengthAdjust="spacing" textLength="126" x="387" y="246.0591">registrationSuccess</text><polygon fill="#181818" points="77,276.2578,67,280.2578,77,284.2578,73,280.2578" style="stroke:#181818;stroke-width:1.0;"/><line style="stroke:#181818;stroke-width:1.0;" x1="71" x2="369" y1="280.2578" y2="280.2578"/><text fill="#000000" font-family="sans-serif" font-size="13" lengthAdjust="spacing" textLength="126" x="83" y="275.1919">registrationSuccess</text><polygon fill="#181818" points="358,305.3906,368,309.3906,358,313.3906,362,309.3906" style="stroke:#181818;stroke-width:1.0;"/><line style="stroke:#181818;stroke-width:1.0;" x1="66" x2="364" y1="309.3906" y2="309.3906"/><text fill="#000000" font-family="sans-serif" font-size="13" lengthAdjust="spacing" textLength="173" x="73" y="304.3247">login(username, password)</text><polygon fill="#181818" points="585,334.5234,595,338.5234,585,342.5234,589,338.5234" style="stroke:#181818;stroke-width:1.0;"/><line style="stroke:#181818;stroke-width:1.0;" x1="370" x2="591" y1="338.5234" y2="338.5234"/><text fill="#000000" font-family="sans-serif" font-size="13" lengthAdjust="spacing" textLength="203" x="377" y="333.4575">loginUser(username, password)</text><polygon fill="#181818" points="381,363.6563,371,367.6563,381,371.6563,377,367.6563" style="stroke:#181818;stroke-width:1.0;"/><line style="stroke:#181818;stroke-width:1.0;stroke-dasharray:2.0,2.0;" x1="375" x2="596" y1="367.6563" y2="367.6563"/><text fill="#000000" font-family="sans-serif" font-size="13" lengthAdjust="spacing" textLength="145" x="387" y="362.5903">authenticationSuccess</text><polygon fill="#181818" points="77,392.7891,67,396.7891,77,400.7891,73,396.7891" style="stroke:#181818;stroke-width:1.0;"/><line style="stroke:#181818;stroke-width:1.0;" x1="71" x2="369" y1="396.7891" y2="396.7891"/><text fill="#000000" font-family="sans-serif" font-size="13" lengthAdjust="spacing" textLength="83" x="83" y="391.7231">loginSuccess</text><rect fill="#EEEEEE" height="3" style="stroke:#EEEEEE;stroke-width:1.0;" width="2412.5" x="0" y="425.3555"/><line style="stroke:#000000;stroke-width:1.0;" x1="0" x2="2412.5" y1="425.3555" y2="425.3555"/><line style="stroke:#000000;stroke-width:1.0;" x1="0" x2="2412.5" y1="428.3555" y2="428.3555"/><rect fill="#EEEEEE" height="23.1328" style="stroke:#000000;stroke-width:2.0;" width="276" x="1068.25" y="414.7891"/><text fill="#000000" font-family="sans-serif" font-size="13" font-weight="bold" lengthAdjust="spacing" textLength="257" x="1074.25" y="430.856">Proposal Submission &amp; Investment</text><polygon fill="#181818" points="717,465.0547,727,469.0547,717,473.0547,721,469.0547" style="stroke:#181818;stroke-width:1.0;"/><line style="stroke:#181818;stroke-width:1.0;" x1="66" x2="723" y1="469.0547" y2="469.0547"/><text fill="#000000" font-family="sans-serif" font-size="13" lengthAdjust="spacing" textLength="192" x="73" y="463.9888">createProposal(proposalData)</text><polygon fill="#181818" points="933,494.1875,943,498.1875,933,502.1875,937,498.1875" style="stroke:#181818;stroke-width:1.0;"/><line style="stroke:#181818;stroke-width:1.0;" x1="729" x2="939" y1="498.1875" y2="498.1875"/><text fill="#000000" font-family="sans-serif" font-size="13" lengthAdjust="spacing" textLength="192" x="736" y="493.1216">createProposal(proposalData)</text><polygon fill="#181818" points="740,523.3203,730,527.3203,740,531.3203,736,527.3203" style="stroke:#181818;stroke-width:1.0;"/><line style="stroke:#181818;stroke-width:1.0;stroke-dasharray:2.0,2.0;" x1="734" x2="944" y1="527.3203" y2="527.3203"/><text fill="#000000" font-family="sans-serif" font-size="13" lengthAdjust="spacing" textLength="182" x="746" y="522.2544">proposalCreated(proposalId)</text><polygon fill="#181818" points="77,552.4531,67,556.4531,77,560.4531,73,556.4531" style="stroke:#181818;stroke-width:1.0;"/><line style="stroke:#181818;stroke-width:1.0;" x1="71" x2="728" y1="556.4531" y2="556.4531"/><text fill="#000000" font-family="sans-serif" font-size="13" lengthAdjust="spacing" textLength="287" x="83" y="551.3872">proposalSubmissionConfirmation(proposalId)</text><polygon fill="#181818" points="1087.5,581.5859,1097.5,585.5859,1087.5,589.5859,1091.5,585.5859" style="stroke:#181818;stroke-width:1.0;"/><line style="stroke:#181818;stroke-width:1.0;" x1="201.5" x2="1093.5" y1="585.5859" y2="585.5859"/><text fill="#000000" font-family="sans-serif" font-size="13" lengthAdjust="spacing" textLength="227" x="208.5" y="580.52">investProposal(proposalId, amount)</text><polygon fill="#181818" points="1353.5,610.7188,1363.5,614.7188,1353.5,618.7188,1357.5,614.7188" style="stroke:#181818;stroke-width:1.0;"/><line style="stroke:#181818;stroke-width:1.0;" x1="1099.5" x2="1359.5" y1="614.7188" y2="614.7188"/><text fill="#000000" font-family="sans-serif" font-size="13" lengthAdjust="spacing" textLength="242" x="1106.5" y="609.6528">makeInvestment(proposalId, amount)</text><polygon fill="#181818" points="2080,639.8516,2090,643.8516,2080,647.8516,2084,643.8516" style="stroke:#181818;stroke-width:1.0;"/><line style="stroke:#181818;stroke-width:1.0;" x1="1365.5" x2="2086" y1="643.8516" y2="643.8516"/><text fill="#000000" font-family="sans-serif" font-size="13" lengthAdjust="spacing" textLength="173" x="1372.5" y="638.7856">triggerInvest(investmentId)</text><polygon fill="#181818" points="2348,668.9844,2358,672.9844,2348,676.9844,2352,672.9844" style="stroke:#181818;stroke-width:1.0;"/><line style="stroke:#181818;stroke-width:1.0;" x1="2092" x2="2354" y1="672.9844" y2="672.9844"/><text fill="#000000" font-family="sans-serif" font-size="13" lengthAdjust="spacing" textLength="244" x="2099" y="667.9185">executeTransaction(amount, receiver)</text><polygon fill="#181818" points="2103,698.1172,2093,702.1172,2103,706.1172,2099,702.1172" style="stroke:#181818;stroke-width:1.0;"/><line style="stroke:#181818;stroke-width:1.0;stroke-dasharray:2.0,2.0;" x1="2097" x2="2359" y1="702.1172" y2="702.1172"/><text fill="#000000" font-family="sans-serif" font-size="13" lengthAdjust="spacing" textLength="218" x="2109" y="697.0513">transactionSuccess(transactionId)</text><polygon fill="#181818" points="1376.5,727.25,1366.5,731.25,1376.5,735.25,1372.5,731.25" style="stroke:#181818;stroke-width:1.0;"/><line style="stroke:#181818;stroke-width:1.0;" x1="1370.5" x2="2091" y1="731.25" y2="731.25"/><text fill="#000000" font-family="sans-serif" font-size="13" lengthAdjust="spacing" textLength="192" x="1382.5" y="726.1841">InvestApproved(investmentId)</text><polygon fill="#181818" points="1110.5,756.3828,1100.5,760.3828,1110.5,764.3828,1106.5,760.3828" style="stroke:#181818;stroke-width:1.0;"/><line style="stroke:#181818;stroke-width:1.0;stroke-dasharray:2.0,2.0;" x1="1104.5" x2="1364.5" y1="760.3828" y2="760.3828"/><text fill="#000000" font-family="sans-serif" font-size="13" lengthAdjust="spacing" textLength="218" x="1116.5" y="755.3169">investmentSuccess(investmentId)</text><polygon fill="#181818" points="212.5,785.5156,202.5,789.5156,212.5,793.5156,208.5,789.5156" style="stroke:#181818;stroke-width:1.0;"/><line style="stroke:#181818;stroke-width:1.0;" x1="206.5" x2="1098.5" y1="789.5156" y2="789.5156"/><text fill="#000000" font-family="sans-serif" font-size="13" lengthAdjust="spacing" textLength="231" x="218.5" y="784.4497">investmentConfirmed(investmentId)</text><rect fill="#EEEEEE" height="3" style="stroke:#EEEEEE;stroke-width:1.0;" width="2412.5" x="0" y="818.082"/><line style="stroke:#000000;stroke-width:1.0;" x1="0" x2="2412.5" y1="818.082" y2="818.082"/><line style="stroke:#000000;stroke-width:1.0;" x1="0" x2="2412.5" y1="821.082" y2="821.082"/><rect fill="#EEEEEE" height="23.1328" style="stroke:#000000;stroke-width:2.0;" width="279" x="1066.75" y="807.5156"/><text fill="#000000" font-family="sans-serif" font-size="13" font-weight="bold" lengthAdjust="spacing" textLength="260" x="1072.75" y="823.5825">Fund Withdrawal Request &amp; Voting</text><polygon fill="#181818" points="1515,857.7813,1525,861.7813,1515,865.7813,1519,861.7813" style="stroke:#181818;stroke-width:1.0;"/><line style="stroke:#181818;stroke-width:1.0;" x1="66" x2="1521" y1="861.7813" y2="861.7813"/><text fill="#000000" font-family="sans-serif" font-size="13" lengthAdjust="spacing" textLength="303" x="73" y="856.7153">requestWithdrawal(proposalId, amount, reason)</text><polygon fill="#181818" points="1842,886.9141,1852,890.9141,1842,894.9141,1846,890.9141" style="stroke:#181818;stroke-width:1.0;"/><line style="stroke:#181818;stroke-width:1.0;" x1="1527" x2="1848" y1="890.9141" y2="890.9141"/><text fill="#000000" font-family="sans-serif" font-size="13" lengthAdjust="spacing" textLength="303" x="1534" y="885.8481">requestWithdrawal(proposalId, amount, reason)</text><polygon fill="#181818" points="1538,916.0469,1528,920.0469,1538,924.0469,1534,920.0469" style="stroke:#181818;stroke-width:1.0;"/><line style="stroke:#181818;stroke-width:1.0;stroke-dasharray:2.0,2.0;" x1="1532" x2="1853" y1="920.0469" y2="920.0469"/><text fill="#000000" font-family="sans-serif" font-size="13" lengthAdjust="spacing" textLength="256" x="1544" y="914.981">withdrawalRequestCreated(withdrawalId)</text><polygon fill="#181818" points="77,945.1797,67,949.1797,77,953.1797,73,949.1797" style="stroke:#181818;stroke-width:1.0;"/><line style="stroke:#181818;stroke-width:1.0;" x1="71" x2="1526" y1="949.1797" y2="949.1797"/><text fill="#000000" font-family="sans-serif" font-size="13" lengthAdjust="spacing" textLength="272" x="83" y="944.1138">withdrawalRequestSubmitted(withdrawalId)</text><polygon fill="#181818" points="1515,974.3125,1525,978.3125,1515,982.3125,1519,978.3125" style="stroke:#181818;stroke-width:1.0;"/><line style="stroke:#181818;stroke-width:1.0;" x1="201.5" x2="1521" y1="978.3125" y2="978.3125"/><text fill="#000000" font-family="sans-serif" font-size="13" lengthAdjust="spacing" textLength="237" x="208.5" y="973.2466">voteOnWithdrawal(withdrawalId, vote)</text><polygon fill="#181818" points="1842,1003.4453,1852,1007.4453,1842,1011.4453,1846,1007.4453" style="stroke:#181818;stroke-width:1.0;"/><line style="stroke:#181818;stroke-width:1.0;" x1="1527" x2="1848" y1="1007.4453" y2="1007.4453"/><text fill="#000000" font-family="sans-serif" font-size="13" lengthAdjust="spacing" textLength="194" x="1534" y="1002.3794">recordVote(withdrawalId, vote)</text><polygon fill="#181818" points="1538,1032.5781,1528,1036.5781,1538,1040.5781,1534,1036.5781" style="stroke:#181818;stroke-width:1.0;"/><line style="stroke:#181818;stroke-width:1.0;stroke-dasharray:2.0,2.0;" x1="1532" x2="1853" y1="1036.5781" y2="1036.5781"/><text fill="#000000" font-family="sans-serif" font-size="13" lengthAdjust="spacing" textLength="88" x="1544" y="1031.5122">voteRecorded</text><polygon fill="#181818" points="212.5,1061.7109,202.5,1065.7109,212.5,1069.7109,208.5,1065.7109" style="stroke:#181818;stroke-width:1.0;"/><line style="stroke:#181818;stroke-width:1.0;" x1="206.5" x2="1526" y1="1065.7109" y2="1065.7109"/><text fill="#000000" font-family="sans-serif" font-size="13" lengthAdjust="spacing" textLength="206" x="218.5" y="1060.645">voteAcknowledged(withdrawalId)</text><rect fill="#EEEEEE" height="3" style="stroke:#EEEEEE;stroke-width:1.0;" width="2412.5" x="0" y="1094.2773"/><line style="stroke:#000000;stroke-width:1.0;" x1="0" x2="2412.5" y1="1094.2773" y2="1094.2773"/><line style="stroke:#000000;stroke-width:1.0;" x1="0" x2="2412.5" y1="1097.2773" y2="1097.2773"/><rect fill="#EEEEEE" height="23.1328" style="stroke:#000000;stroke-width:2.0;" width="207" x="1102.75" y="1083.7109"/><text fill="#000000" font-family="sans-serif" font-size="13" font-weight="bold" lengthAdjust="spacing" textLength="188" x="1108.75" y="1099.7778">Smart Contract Execution</text><polygon fill="#181818" points="2080,1133.9766,2090,1137.9766,2080,1141.9766,2084,1137.9766" style="stroke:#181818;stroke-width:1.0;"/><line style="stroke:#181818;stroke-width:1.0;" x1="1854" x2="2086" y1="1137.9766" y2="1137.9766"/><text fill="#000000" font-family="sans-serif" font-size="13" lengthAdjust="spacing" textLength="197" x="1861" y="1132.9106">triggerWithdrawal(withdrawalId)</text><polygon fill="#181818" points="2348,1163.1094,2358,1167.1094,2348,1171.1094,2352,1167.1094" style="stroke:#181818;stroke-width:1.0;"/><line style="stroke:#181818;stroke-width:1.0;" x1="2092" x2="2354" y1="1167.1094" y2="1167.1094"/><text fill="#000000" font-family="sans-serif" font-size="13" lengthAdjust="spacing" textLength="244" x="2099" y="1162.0435">executeTransaction(amount, receiver)</text><polygon fill="#181818" points="2103,1192.2422,2093,1196.2422,2103,1200.2422,2099,1196.2422" style="stroke:#181818;stroke-width:1.0;"/><line style="stroke:#181818;stroke-width:1.0;stroke-dasharray:2.0,2.0;" x1="2097" x2="2359" y1="1196.2422" y2="1196.2422"/><text fill="#000000" font-family="sans-serif" font-size="13" lengthAdjust="spacing" textLength="218" x="2109" y="1191.1763">transactionSuccess(transactionId)</text><polygon fill="#181818" points="1865,1221.375,1855,1225.375,1865,1229.375,1861,1225.375" style="stroke:#181818;stroke-width:1.0;"/><line style="stroke:#181818;stroke-width:1.0;" x1="1859" x2="2091" y1="1225.375" y2="1225.375"/><text fill="#000000" font-family="sans-serif" font-size="13" lengthAdjust="spacing" textLength="214" x="1871" y="1220.3091">withdrawalApproved(withdrawalId)</text><polygon fill="#181818" points="1538,1250.5078,1528,1254.5078,1538,1258.5078,1534,1254.5078" style="stroke:#181818;stroke-width:1.0;"/><line style="stroke:#181818;stroke-width:1.0;" x1="1532" x2="1853" y1="1254.5078" y2="1254.5078"/><text fill="#000000" font-family="sans-serif" font-size="13" lengthAdjust="spacing" textLength="273" x="1544" y="1249.4419">processWithdrawal(withdrawalId, approved)</text><polygon fill="#181818" points="77,1279.6406,67,1283.6406,77,1287.6406,73,1283.6406" style="stroke:#181818;stroke-width:1.0;"/><line style="stroke:#181818;stroke-width:1.0;" x1="71" x2="1526" y1="1283.6406" y2="1283.6406"/><text fill="#000000" font-family="sans-serif" font-size="13" lengthAdjust="spacing" textLength="219" x="83" y="1278.5747">withdrawalProcessed(withdrawalId)</text><!--SRC=[lLLDZziW4BtxLw0zL8cK_GEHKccLxQevDLedxPdQ4ozA32bW9p-_0mO3mTbTzT2RFVFUcqz0Ctq2KiAV3dW5v9dHHjAM78GaQoakzQ7ZDUCDsPweHcDR5BJIw7n1Umbm1BbN80bLvANSHxwj53sh8-zsNnHdAZMhs9boJHwUElq67F-fPe8_RJVVAQzF81yCt3ZHb3ACLWcoPnLOaFtlgnI4WSz2qTEDO6IUniV2e-rMVCDxKBh5j6_a1qSc7l2n_63Dn7yn_LPBUibozuvCFZ1YUM_D0fGj_gq5rnBdPA7bEaNi9EKAdJWGwzzTYsArieqchz0mXLJZ95z8EZwoMXMu0EJngn_TaaXB03dhaFvCDPqNpcTWRdW1PWmHrFd9Oouvv51sLGLAnPgOmJGco-qa6iPjD4vRM90pLUeYP3sTeaMF-Tqo9ZEbINlkvMg5noInqtxpIDdzRfbIGw_36aLzZZPwIIe9L8CtpSxkOsXbX8o9jhHF4NrrIKWFNLk5UgHkwYoYhTNxGsMuYWScMzkXX5xWRM5uuwbQ4cO_ipmtzOBGLdHSpuiH7QYsn9OU8NJm7IgYaLckbqHBrZGW1_ECZMIJNBas-hlhai0Lgav3T6XcW-02bx02reES5xkhRTsWEWBTp6UHAMX7kRkQpfXqZprECnbnDaBMB7ljk3XJH3-SxJvckA5amSnscekTX4i7hmHyDfJ63Vqfj7abmdP6TvOvaXONc1D3C3sZIl1v4L5Z9NTP_8kIRr6Ir6NKS6NuHGuEK_TDDdQLCwhTQPsJ_I8dWNkXuGUFIeWv2-l-g0aLNZpOSdYNEbcrWRnQFjHPRMOJ3E2fEd9nEK7Tv1NX6jXtXFY7X7opny0z0admv33TAVX_7AYaUo7uUAoc9-vAIDg711Fcxl2ea_neRxQ3pctilm00]--></g></svg>